<svg xmlns="http://www.w3.org/2000/svg" viewBox="0 0 16 16">
  <g>
    <path fill="currentColor" fill-rule="evenodd"
      d="M12.64,10.4a.72.72,0,0,0-1,0L8.48,13.53V10.17l-.14-.11-.59-.59-.58.59L7,10.17v3.35L3.9,10.4h0a.72.72,0,0,0-1,0h0a.72.72,0,0,0,0,1L7.24,15.8h0a.74.74,0,0,0,1,0l4.37-4.37A.72.72,0,0,0,12.64,10.4Z" />
    <path fill="currentColor" fill-rule="evenodd"
      d="M7.17,4l.58.58L8.34,4a1.49,1.49,0,0,1,.14-.12V.71A.73.73,0,0,0,7,.71V3.88A1.49,1.49,0,0,1,7.17,4Z" />
    <polygon fill="#e05d44" fill-rule="evenodd"
      points="10.68 5.32 9.53 4.17 7.79 5.91 6.01 4.13 4.86 5.29 6.64 7.06 4.9 8.8 6.05 9.96 7.79 8.21 9.49 9.92 10.65 8.77 8.94 7.06 10.68 5.32" />
  </g>
</svg>