<svg xmlns="http://www.w3.org/2000/svg" viewBox="0 0 1024 1024"><g fill="currentColor"><path d="M630.15,451.61c-1.57,0-3.12.07-4.65.19L512,287.33a91,91,0,1,0-88.85,71.28c2.5,0,5-.11,7.43-.31L573,489.52a62.21,62.21,0,0,0,0,48.28L430.71,668.94q-3.58-.29-7.24-.29a90.94,90.94,0,1,0,88.8,71.06L625.65,575.43c1.49.1,3,.18,4.5.18a62,62,0,0,0,0-124Zm-282-184a75,75,0,0,1,150-.36L475.86,235c-1.06-1.71-2.21-3.36-3.42-5l-.09-.13h0a62,62,0,1,0-86.25,87.42l26.65,24.56A75,75,0,0,1,348.15,267.61Zm75.32,567a75,75,0,0,1-10.65-149.24l-26,24a62,62,0,1,0,85.62,87.83l.1.1,26-37.61A75,75,0,0,1,423.47,834.65Z"/><path d="M422.57,647.39,549.51,530.45a82.72,82.72,0,0,1,0-36.07l-127-117a110.39,110.39,0,0,1-65.8-21.7H95.83a20,20,0,0,0-20,20v275a20,20,0,0,0,20,20h259.1A110.45,110.45,0,0,1,422.57,647.39Z"/><path d="M636,431.81a81.54,81.54,0,0,1,37.62,12.31h167a44.24,44.24,0,0,0,44.24-44.23h0a44.24,44.24,0,0,0-44.24-44.24H583.44Z"/><path d="M903.59,469.41H699.19a81.83,81.83,0,0,1-.06,88.48H903.59a44.24,44.24,0,0,0,44.24-44.24h0A44.24,44.24,0,0,0,903.59,469.41Z"/><path d="M768.59,582.18H675.05a81.49,81.49,0,0,1-38.88,13.21l-51.94,75.26H768.59a44.24,44.24,0,0,0,44.24-44.24h0A44.24,44.24,0,0,0,768.59,582.18Z"/></g></svg>