<svg xmlns="http://www.w3.org/2000/svg" xmlns:xlink="http://www.w3.org/1999/xlink" aria-hidden="true" focusable="false" width="1em" height="1em" style="-ms-transform: rotate(360deg); -webkit-transform: rotate(360deg); transform: rotate(360deg);" preserveAspectRatio="xMidYMid meet" viewBox="0 0 36 36"><path d="M28 4H12a2 2 0 0 0-2 2h18v24H12v-9.8h-2V30a2 2 0 0 0 2 2h16a2 2 0 0 0 2-2V6a2 2 0 0 0-2-2z" class="clr-i-outline clr-i-outline-path-1" fill="currentColor"/><path d="M15.12 18.46a1 1 0 1 0 1.41 1.41l5.79-5.79l-5.78-5.79a1 1 0 0 0-1.41 1.41L18.5 13H4a1 1 0 0 0-1 1a1 1 0 0 0 1 1h14.5z" class="clr-i-outline clr-i-outline-path-2" fill="currentColor"/></svg>