<svg xmlns="http://www.w3.org/2000/svg" xmlns:xlink="http://www.w3.org/1999/xlink" aria-hidden="true" focusable="false" width="1em" height="1em" style="-ms-transform: rotate(360deg); -webkit-transform: rotate(360deg); transform: rotate(360deg);" preserveAspectRatio="xMidYMid meet" viewBox="0 0 36 36"><path d="M7 6h16v9.8h2V6a2 2 0 0 0-2-2H7a2 2 0 0 0-2 2v24a2 2 0 0 0 2 2h16a2 2 0 0 0 2-2H7z" class="clr-i-outline clr-i-outline-path-1" fill="currentColor"/><path d="M28.16 17.28a1 1 0 0 0-1.41 1.41L30.13 22h-14.5a1 1 0 0 0-1 1a1 1 0 0 0 1 1h14.5l-3.38 3.46a1 1 0 1 0 1.41 1.41l5.84-5.8z" class="clr-i-outline clr-i-outline-path-2" fill="currentColor"/></svg>