<svg xmlns="http://www.w3.org/2000/svg" xmlns:xlink="http://www.w3.org/1999/xlink" aria-hidden="true" focusable="false" width="1em" height="1em" style="-ms-transform: rotate(360deg); -webkit-transform: rotate(360deg); transform: rotate(360deg);" preserveAspectRatio="xMidYMid meet" viewBox="0 0 16 16"><g fill="currentColor"><path fill-rule="evenodd" clip-rule="evenodd" d="M10 3h3v1h-1v9l-1 1H4l-1-1V4H2V3h3V2a1 1 0 0 1 1-1h3a1 1 0 0 1 1 1v1zM9 2H6v1h3V2zM4 13h7V4H4v9zm2-8H5v7h1V5zm1 0h1v7H7V5zm2 0h1v7H9V5z"/></g></svg>